#!OML:ASF X:\für Bonn\!DataBase\2005_08_11_Bastian_Final\c3d\Bastian.ASF
:FULLY-SPECIFIED
:DEGREES
64
root -22.4929 17.6464 -0.375281 73.641 -83.5931 -81.7928
lowerback 6.41448 0.868388 3.7411
upperback 5.30632 1.17333 -0.877882
thorax 1.98901 0.647165 -3.05919
lowerneck -8.84508 -6.71312 -1.46209
upperneck -9.23511 -8.88315 6.73132
head -1.03706 -4.60124 2.18882
rclavicle -3.8763e-015 -1.59028e-015
rhumerus 28.9056 0.268355 -35.255
rradius 78.911
rwrist -6.95335
rhand -10.8838 -0.847702
rfingers 7.12502
rthumb 15.1324 -30.2745
lclavicle -3.8763e-015 -1.59028e-015
lhumerus -21.9844 -15.7635 88.2576
lradius 14.4524
lwrist 14.336
lhand -11.0687 -6.19786
lfingers 7.12502
lthumb 14.9543 23.2423
rfemur -0.122586 3.10271 26.3277
rtibia 27.4037
rfoot -10.4458 -15.0428
rtoes -7.35623
lfemur 2.11833 3.70479 -12.5562
ltibia 22.5858
lfoot -9.67853 -4.4197
ltoes -15.9026
65
root -22.4888 17.6466 -0.37705 73.3962 -83.5714 -81.5506
lowerback 6.43778 0.962154 3.8448
upperback 5.31781 1.30375 -0.998683
thorax 2.00545 0.718041 -3.24855
lowerneck -8.84554 -6.84425 -1.38748
upperneck -9.28448 -9.06055 6.84115
head -1.04372 -4.69507 2.20777
rclavicle -9.64106e-015 -1.03368e-014
rhumerus 30.9465 -0.314168 -34.5468
rradius 76.7316
rwrist -6.52237
rhand -10.4155 -0.787786
rfingers 7.12502
rthumb 15.5835 -30.18
lclavicle -9.64106e-015 -1.03368e-014
lhumerus -21.9665 -15.6348 88.0729
lradius 14.0339
lwrist 14.0789
lhand -11.0957 -6.04151
lfingers 7.12502
lthumb 14.9283 23.4005
rfemur -0.139088 3.02562 26.3368
rtibia 27.406
rfoot -10.4321 -15.0011
rtoes -7.36268
lfemur 2.09392 3.69221 -12.532
ltibia 22.5932
lfoot -9.65797 -4.44048
ltoes -15.9684
66
root -22.485 17.6469 -0.379195 73.0132 -83.5705 -81.1681
lowerback 6.46654 1.05733 3.91124
upperback 5.3153 1.43531 -1.1168
thorax 2.00411 0.787978 -3.41458
lowerneck -8.78335 -6.97512 -1.33663
upperneck -9.3748 -9.23385 6.95441
head -1.07258 -4.7879 2.236
rclavicle 1.25234e-014 -3.97569e-015
rhumerus 32.9261 -0.939687 -34.0219
rradius 74.3983
rwrist -5.65435
rhand -9.89993 -0.55405
rfingers 7.12502
rthumb 16.08 -29.9069
lclavicle 1.25234e-014 -3.97569e-015
lhumerus -21.9929 -15.5289 87.9078
lradius 13.6589
lwrist 13.8352
lhand -11.1236 -5.90914
lfingers 7.12502
lthumb 14.9014 23.5349
rfemur -0.155626 2.9716 26.3224
rtibia 27.4123
rfoot -10.4407 -14.9767
rtoes -7.25427
lfemur 2.06846 3.65388 -12.5438
ltibia 22.5984
lfoot -9.65923 -4.42801
ltoes -16.1322
67
root -22.4818 17.6469 -0.381892 72.6253 -83.5379 -80.7811
lowerback 6.48692 1.16173 4.02309
upperback 5.32261 1.58037 -1.23987
thorax 2.02175 0.866582 -3.61174
lowerneck -8.77841 -7.11616 -1.24611
upperneck -9.42521 -9.42583 7.04962
head -1.08125 -4.8895 2.24753
rclavicle 8.15017e-015 -2.06736e-014
rhumerus 34.7676 -1.53488 -33.4998
rradius 72.1039
rwrist -4.7401
rhand -9.55052 -0.397304
rfingers 7.12502
rthumb 16.4164 -29.7226
lclavicle 8.15017e-015 -2.06736e-014
lhumerus -22.0091 -15.3882 87.7077
lradius 13.326
lwrist 13.5847
lhand -11.1485 -5.83347
lfingers 7.12502
lthumb 14.8774 23.6123
rfemur -0.162662 2.94373 26.3568
rtibia 27.4106
rfoot -10.4333 -15.0033
rtoes -7.25253
lfemur 2.03919 3.63016 -12.5134
ltibia 22.6138
lfoot -9.64088 -4.42605
ltoes -16.2662
68
root -22.4787 17.6469 -0.384752 72.2226 -83.5339 -80.3871
lowerback 6.52936 1.2641 4.09943
upperback 5.3174 1.7224 -1.36276
thorax 2.01365 0.941931 -3.78943
lowerneck -8.74267 -7.25747 -1.20986
upperneck -9.47979 -9.6116 7.18823
head -1.09164 -4.98716 2.28373
rclavicle 2.73329e-014 0
rhumerus 36.4917 -1.99331 -32.9426
rradius 69.9372
rwrist -4.11023
rhand -9.42834 -0.387566
rfingers 7.12502
rthumb 16.5341 -29.7031
lclavicle 2.73329e-014 0
lhumerus -22.0624 -15.1498 87.4912
lradius 13.0336
lwrist 13.2937
lhand -11.1221 -5.82298
lfingers 7.12502
lthumb 14.9029 23.6209
rfemur -0.164509 2.89931 26.3503
rtibia 27.416
rfoot -10.4472 -14.9928
rtoes -7.141
lfemur 2.02702 3.57413 -12.519
ltibia 22.6197
lfoot -9.62995 -4.41599
ltoes -16.2643
69
root -22.476 17.6468 -0.387712 71.7705 -83.5004 -79.9393
lowerback 6.55564 1.35855 4.18592
upperback 5.31411 1.85363 -1.45888
thorax 2.01589 1.01202 -3.94428
lowerneck -8.66663 -7.40065 -1.20476
upperneck -9.5695 -9.79647 7.31532
head -1.11885 -5.08475 2.3246
rclavicle 2.33572e-014 -1.74931e-014
rhumerus 38.1445 -2.33215 -32.3069
rradius 67.8271
rwrist -3.84993
rhand -9.52736 -0.452292
rfingers 7.12502
rthumb 16.4387 -29.7758
lclavicle 2.33572e-014 -1.74931e-014
lhumerus -22.1401 -14.8594 87.2812
lradius 12.8006
lwrist 12.9743
lhand -11.0819 -5.83571
lfingers 7.12502
lthumb 14.9416 23.6053
rfemur -0.168117 2.82213 26.3723
rtibia 27.4135
rfoot -10.4409 -14.9785
rtoes -7.13903
lfemur 2.0062 3.54544 -12.49
ltibia 22.6348
lfoot -9.62557 -4.43579
ltoes -16.4789
70
root -22.474 17.6475 -0.390639 71.2585 -83.494 -79.4325
lowerback 6.58296 1.46459 4.27008
upperback 5.31281 2.00017 -1.58467
thorax 2.02331 1.09035 -4.12947
lowerneck -8.61966 -7.54774 -1.16835
upperneck -9.6454 -9.98911 7.46198
head -1.13685 -5.18698 2.36462
rclavicle -2.09718e-014 9.54166e-015
rhumerus 39.7101 -2.66378 -31.7142
rradius 65.6997
rwrist -3.66501
rhand -9.7689 -0.4889
rfingers 7.12502
rthumb 16.2062 -29.8315
lclavicle -2.09718e-014 9.54166e-015
lhumerus -22.2259 -14.7116 87.0668
lradius 12.6002
lwrist 12.7774
lhand -11.0344 -5.84134
lfingers 7.12502
lthumb 14.9874 23.5963
rfemur -0.169437 2.7649 26.3623
rtibia 27.4174
rfoot -10.4607 -14.9659
rtoes -7.0813
lfemur 1.99085 3.46573 -12.5064
ltibia 22.6431
lfoot -9.62953 -4.38366
ltoes -16.685
71
root -22.4714 17.6473 -0.393572 70.7913 -83.4377 -78.9671
lowerback 6.61871 1.56258 4.39481
upperback 5.30676 2.13833 -1.69136
thorax 2.02246 1.16516 -4.31782
lowerneck -8.55808 -7.69624 -1.14042
upperneck -9.75279 -10.1821 7.61429
head -1.16646 -5.29054 2.40986
rclavicle 4.69132e-014 -1.74931e-014
rhumerus 41.2038 -2.95469 -31.1059
rradius 63.5919
rwrist -3.54964
rhand -10.105 -0.501462
rfingers 7.12502
rthumb 15.8825 -29.8701
lclavicle 4.69132e-014 -1.74931e-014
lhumerus -22.3232 -14.52 86.843
lradius 12.4237
lwrist 12.5524
lhand -10.9163 -5.8769
lfingers 7.12502
lthumb 15.1011 23.5522
rfemur -0.171742 2.73209 26.4191
rtibia 27.4142
rfoot -10.4567 -15.0056
rtoes -7.0579
lfemur 1.96373 3.35895 -12.4671
ltibia 22.6591
lfoot -9.61394 -4.34755
ltoes -16.6305
72
root -22.4696 17.6473 -0.397505 70.2774 -83.4251 -78.4562
lowerback 6.65573 1.67277 4.48483
upperback 5.29784 2.2913 -1.82233
thorax 2.02021 1.24669 -4.51281
lowerneck -8.5113 -7.85117 -1.10449
upperneck -9.82429 -10.385 7.76082
head -1.18216 -5.39797 2.44965
rclavicle 4.37326e-015 -4.77083e-015
rhumerus 42.5784 -3.24316 -30.5621
rradius 61.5249
rwrist -3.50376
rhand -10.1152 -0.432629
rfingers 7.12502
rthumb 15.8727 -29.8021
lclavicle 4.37326e-015 -4.77083e-015
lhumerus -22.4277 -14.2515 86.5695
lradius 12.3068
lwrist 12.1891
lhand -10.7641 -5.87528
lfingers 7.12502
lthumb 15.2478 23.5428
rfemur -0.173018 2.66983 26.4222
rtibia 27.4158
rfoot -10.4462 -15.0054
rtoes -6.99386
lfemur 1.94543 3.29658 -12.4695
ltibia 22.6686
lfoot -9.61224 -4.33325
ltoes -16.7702
73
root -22.4674 17.647 -0.400604 69.7403 -83.3885 -77.9297
lowerback 6.70752 1.78114 4.60272
upperback 5.29265 2.4434 -1.93854
thorax 2.01563 1.32829 -4.7088
lowerneck -8.46638 -8.01328 -1.08379
upperneck -9.90973 -10.5958 7.91779
head -1.20009 -5.50951 2.4956
rclavicle 6.16232e-015 2.22639e-014
rhumerus 43.8914 -3.50678 -29.977
rradius 59.5056
rwrist -3.54329
rhand -9.9149 -0.346138
rfingers 7.12502
rthumb 16.0656 -29.7001
lclavicle 6.16232e-015 2.22639e-014
lhumerus -22.5337 -14.138 86.3517
lradius 12.1919
lwrist 11.9807
lhand -10.6081 -5.88487
lfingers 7.12502
lthumb 15.398 23.5217
rfemur -0.162073 2.60701 26.443
rtibia 27.4099
rfoot -10.4615 -15.0033
rtoes -6.88004
lfemur 1.92926 3.21848 -12.4527
ltibia 22.6865
lfoot -9.61832 -4.29838
ltoes -17.044
74
root -22.4652 17.647 -0.404061 69.1176 -83.37 -77.3132
lowerback 6.75782 1.88708 4.68806
upperback 5.28414 2.59079 -2.05845
thorax 2.00755 1.40649 -4.89035
lowerneck -8.43973 -8.16823 -1.05728
upperneck -9.9772 -10.7985 8.06073
head -1.21043 -5.61632 2.53476
rclavicle -2.8625e-014 -1.27222e-014
rhumerus 45.1413 -3.76017 -29.4477
rradius 57.5257
rwrist -3.61519
rhand -9.68743 -0.292982
rfingers 7.12502
rthumb 16.2846 -29.6292
lclavicle -2.8625e-014 -1.27222e-014
lhumerus -22.6511 -13.927 86.1034
lradius 12.1219
lwrist 11.642
lhand -10.4367 -5.84834
lfingers 7.12502
lthumb 15.5631 23.5455
rfemur -0.161962 2.53241 26.444
rtibia 27.4135
rfoot -10.4637 -15.0057
rtoes -6.8728
lfemur 1.9129 3.11397 -12.4598
ltibia 22.6917
lfoot -9.60967 -4.26952
ltoes -17.0437
